<svg width="1200" height="630" viewBox="0 0 1200 630" xmlns="http://www.w3.org/2000/svg">
  <defs>
    <linearGradient id="bgStreamlit" x1="0" y1="0" x2="0" y2="1">
      <stop offset="0%" stop-color="#0b1120"></stop>
      <stop offset="100%" stop-color="#1e293b"></stop>
    </linearGradient>
    <linearGradient id="screenStreamlit" x1="0" y1="0" x2="1" y2="1">
      <stop offset="0%" stop-color="#f97316"></stop>
      <stop offset="100%" stop-color="#ec4899"></stop>
    </linearGradient>
  </defs>

  <!-- Background -->
  <rect width="1200" height="630" fill="url(#bgStreamlit)"></rect>

  <!-- Title -->
  <text x="80" y="120" fill="#fee2e2" font-size="60" font-weight="700" font-family="system-ui, -apple-system, BlinkMacSystemFont, 'Segoe UI', sans-serif">
    Learning
  </text>
  <text x="80" y="190" fill="#fb7185" font-size="72" font-weight="800" font-family="system-ui, -apple-system, BlinkMacSystemFont, 'Segoe UI', sans-serif">
    Streamlit Basics
  </text>

  <!-- Background shapes -->
  <circle cx="1040" cy="80" r="70" fill="#1f2937"></circle>
  <circle cx="1030" cy="520" r="90" fill="#0f172a"></circle>
  <circle cx="150" cy="540" r="120" fill="#0f172a"></circle>

  <!-- Laptop base -->
  <rect x="340" y="420" width="520" height="40" rx="18" fill="#020617"></rect>
  <rect x="320" y="250" width="560" height="190" rx="18" fill="#020617" stroke="#e5e7eb" stroke-width="3"></rect>

  <!-- Screen header -->
  <rect x="320" y="250" width="560" height="44" rx="18" fill="#020617"></rect>
  <circle cx="344" cy="272" r="7" fill="#ef4444"></circle>
  <circle cx="366" cy="272" r="7" fill="#facc15"></circle>
  <circle cx="388" cy="272" r="7" fill="#22c55e"></circle>

  <!-- Layout: sidebar -->
  <rect x="340" y="304" width="120" height="120" rx="10" fill="#020617" stroke="#1d4ed8" stroke-width="2"></rect>
  <rect x="350" y="316" width="100" height="12" rx="6" fill="#1d4ed8"></rect>
  <rect x="350" y="338" width="80" height="10" rx="5" fill="#4b5563"></rect>
  <rect x="350" y="360" width="90" height="10" rx="5" fill="#4b5563"></rect>
  <rect x="350" y="382" width="70" height="10" rx="5" fill="#4b5563"></rect>

  <!-- Main charts -->
  <rect x="480" y="304" width="180" height="80" rx="12" fill="#0f172a" stroke="#f97316" stroke-width="2"></rect>
  <path d="M495 366 L515 342 L540 350 L565 328 L590 346 L615 332" fill="none" stroke="#fb923c" stroke-width="3"></path>
  <circle cx="515" cy="342" r="4" fill="#fb923c"></circle>
  <circle cx="565" cy="328" r="4" fill="#fb923c"></circle>
  <circle cx="615" cy="332" r="4" fill="#fb923c"></circle>

  <rect x="680" y="304" width="180" height="80" rx="12" fill="#0f172a" stroke="#22c55e" stroke-width="2"></rect>
  <rect x="700" y="320" width="30" height="40" rx="4" fill="#22c55e"></rect>
  <rect x="738" y="330" width="30" height="30" rx="4" fill="#4ade80"></rect>
  <rect x="776" y="312" width="30" height="48" rx="4" fill="#16a34a"></rect>
  <rect x="814" y="336" width="30" height="24" rx="4" fill="#22c55e"></rect>

  <!-- Bottom cards -->
  <rect x="480" y="394" width="380" height="20" rx="10" fill="#111827"></rect>
  <rect x="480" y="418" width="180" height="14" rx="7" fill="#4b5563"></rect>
  <rect x="680" y="418" width="180" height="14" rx="7" fill="#4b5563"></rect>

  <!-- Rocket icon -->
  <g transform="translate(130,260) scale(1.1)">
    <path d="M80 150 C80 110 110 60 140 40 C170 60 200 110 200 150 Z" fill="#f97316"></path>
    <circle cx="140" cy="90" r="16" fill="#0f172a"></circle>
    <circle cx="140" cy="90" r="9" fill="#38bdf8"></circle>
    <path d="M110 150 L85 190 L115 190 Z" fill="#fb923c"></path>
    <path d="M170 150 L195 190 L165 190 Z" fill="#fb923c"></path>
    <path d="M140 150 L125 220 L155 220 Z" fill="#f97316"></path>
    <path d="M125 220 C120 240 120 260 135 280" stroke="#38bdf8" stroke-width="4" fill="none"></path>
    <path d="M155 220 C160 240 160 260 145 280" stroke="#38bdf8" stroke-width="4" fill="none"></path>
  </g>
</svg>
